<mxfile host="app.diagrams.net" modified="2024-05-09T11:10:59.098Z" agent="Mozilla/5.0 (Windows NT 10.0; Win64; x64) AppleWebKit/537.36 (KHTML, like Gecko) Chrome/124.0.0.0 Safari/537.36 Edg/124.0.0.0" etag="jM47G8K56SyobexA8uj2" version="24.3.1" type="device">
  <diagram name="Página-1" id="PTaU9UPacZL9F430mjfD">
    <mxGraphModel dx="1386" dy="793" grid="1" gridSize="10" guides="1" tooltips="1" connect="1" arrows="1" fold="1" page="1" pageScale="1" pageWidth="827" pageHeight="1169" math="0" shadow="0">
      <root>
        <mxCell id="0" />
        <mxCell id="1" parent="0" />
        <mxCell id="mTvcn5c1xsZi8lV0LpWr-18" value="" style="edgeStyle=orthogonalEdgeStyle;rounded=0;orthogonalLoop=1;jettySize=auto;html=1;" parent="1" source="mTvcn5c1xsZi8lV0LpWr-16" edge="1">
          <mxGeometry relative="1" as="geometry">
            <mxPoint x="414" y="150" as="targetPoint" />
          </mxGeometry>
        </mxCell>
        <mxCell id="mTvcn5c1xsZi8lV0LpWr-16" value="Inicio" style="strokeWidth=2;html=1;shape=mxgraph.flowchart.terminator;whiteSpace=wrap;" parent="1" vertex="1">
          <mxGeometry x="364" y="20" width="100" height="60" as="geometry" />
        </mxCell>
        <mxCell id="CdlXuyK48Img5EnvGftB-8" value="" style="edgeStyle=orthogonalEdgeStyle;rounded=0;orthogonalLoop=1;jettySize=auto;html=1;" parent="1" source="CdlXuyK48Img5EnvGftB-4" target="CdlXuyK48Img5EnvGftB-7" edge="1">
          <mxGeometry relative="1" as="geometry" />
        </mxCell>
        <mxCell id="CdlXuyK48Img5EnvGftB-4" value="cliente1" style="html=1;strokeWidth=2;shape=manualInput;whiteSpace=wrap;rounded=1;size=26;arcSize=11;" parent="1" vertex="1">
          <mxGeometry x="359" y="240" width="100" height="60" as="geometry" />
        </mxCell>
        <mxCell id="CdlXuyK48Img5EnvGftB-5" value="digite o nome do cliente" style="strokeWidth=2;html=1;shape=mxgraph.flowchart.display;whiteSpace=wrap;" parent="1" vertex="1">
          <mxGeometry x="350" y="140" width="110" height="70" as="geometry" />
        </mxCell>
        <mxCell id="CdlXuyK48Img5EnvGftB-6" style="edgeStyle=orthogonalEdgeStyle;rounded=0;orthogonalLoop=1;jettySize=auto;html=1;entryX=0.46;entryY=0.233;entryDx=0;entryDy=0;entryPerimeter=0;" parent="1" source="CdlXuyK48Img5EnvGftB-5" target="CdlXuyK48Img5EnvGftB-4" edge="1">
          <mxGeometry relative="1" as="geometry" />
        </mxCell>
        <mxCell id="CdlXuyK48Img5EnvGftB-7" value="escolha so numero da promoção" style="strokeWidth=2;html=1;shape=mxgraph.flowchart.display;whiteSpace=wrap;" parent="1" vertex="1">
          <mxGeometry x="349.57" y="330" width="118.86" height="80" as="geometry" />
        </mxCell>
        <mxCell id="CdlXuyK48Img5EnvGftB-9" value="promocao" style="html=1;strokeWidth=2;shape=manualInput;whiteSpace=wrap;rounded=1;size=26;arcSize=11;" parent="1" vertex="1">
          <mxGeometry x="365" y="430" width="100" height="60" as="geometry" />
        </mxCell>
        <mxCell id="CdlXuyK48Img5EnvGftB-10" style="edgeStyle=orthogonalEdgeStyle;rounded=0;orthogonalLoop=1;jettySize=auto;html=1;entryX=0.44;entryY=0.183;entryDx=0;entryDy=0;entryPerimeter=0;" parent="1" source="CdlXuyK48Img5EnvGftB-7" target="CdlXuyK48Img5EnvGftB-9" edge="1">
          <mxGeometry relative="1" as="geometry" />
        </mxCell>
        <mxCell id="CdlXuyK48Img5EnvGftB-11" value="digite a quantidade" style="strokeWidth=2;html=1;shape=mxgraph.flowchart.display;whiteSpace=wrap;" parent="1" vertex="1">
          <mxGeometry x="352" y="532" width="125" height="60" as="geometry" />
        </mxCell>
        <mxCell id="CdlXuyK48Img5EnvGftB-12" value="quantidade" style="html=1;strokeWidth=2;shape=manualInput;whiteSpace=wrap;rounded=1;size=26;arcSize=11;" parent="1" vertex="1">
          <mxGeometry x="365" y="620" width="100" height="60" as="geometry" />
        </mxCell>
        <mxCell id="CdlXuyK48Img5EnvGftB-15" style="edgeStyle=orthogonalEdgeStyle;rounded=0;orthogonalLoop=1;jettySize=auto;html=1;entryX=0.5;entryY=0;entryDx=0;entryDy=0;entryPerimeter=0;" parent="1" source="CdlXuyK48Img5EnvGftB-9" target="CdlXuyK48Img5EnvGftB-11" edge="1">
          <mxGeometry relative="1" as="geometry" />
        </mxCell>
        <mxCell id="CdlXuyK48Img5EnvGftB-16" style="edgeStyle=orthogonalEdgeStyle;rounded=0;orthogonalLoop=1;jettySize=auto;html=1;entryX=0.5;entryY=0.217;entryDx=0;entryDy=0;entryPerimeter=0;" parent="1" source="CdlXuyK48Img5EnvGftB-11" target="CdlXuyK48Img5EnvGftB-12" edge="1">
          <mxGeometry relative="1" as="geometry" />
        </mxCell>
        <mxCell id="CdlXuyK48Img5EnvGftB-17" style="edgeStyle=orthogonalEdgeStyle;rounded=0;orthogonalLoop=1;jettySize=auto;html=1;entryX=0.5;entryY=0;entryDx=0;entryDy=0;entryPerimeter=0;" parent="1" source="CdlXuyK48Img5EnvGftB-12" edge="1">
          <mxGeometry relative="1" as="geometry">
            <mxPoint x="415" y="723" as="targetPoint" />
          </mxGeometry>
        </mxCell>
        <mxCell id="CdlXuyK48Img5EnvGftB-81" style="edgeStyle=orthogonalEdgeStyle;rounded=0;orthogonalLoop=1;jettySize=auto;html=1;entryX=0;entryY=0;entryDx=123.63;entryDy=0;entryPerimeter=0;" parent="1" source="CdlXuyK48Img5EnvGftB-21" target="CdlXuyK48Img5EnvGftB-83" edge="1">
          <mxGeometry relative="1" as="geometry">
            <mxPoint x="660" y="1340" as="targetPoint" />
          </mxGeometry>
        </mxCell>
        <mxCell id="CdlXuyK48Img5EnvGftB-21" value="promocao = 1" style="rhombus;whiteSpace=wrap;html=1;" parent="1" vertex="1">
          <mxGeometry x="340" y="1090" width="150" height="150" as="geometry" />
        </mxCell>
        <mxCell id="CdlXuyK48Img5EnvGftB-26" value="promocao =&amp;nbsp;&quot;Big Sanduba&quot;&lt;div&gt;detalhepedido = &quot;Dois Hambúrguers, Queijo, batata frita e refrigerante&quot;&lt;/div&gt;&lt;div&gt;valor = 5.00&lt;/div&gt;&lt;div&gt;valortotal = quantidade * 5.00&lt;/div&gt;" style="shape=display;whiteSpace=wrap;html=1;" parent="1" vertex="1">
          <mxGeometry x="302" y="1300" width="235.66" height="94.63" as="geometry" />
        </mxCell>
        <mxCell id="CdlXuyK48Img5EnvGftB-69" style="edgeStyle=orthogonalEdgeStyle;rounded=0;orthogonalLoop=1;jettySize=auto;html=1;entryX=0.48;entryY=0.032;entryDx=0;entryDy=0;entryPerimeter=0;" parent="1" source="CdlXuyK48Img5EnvGftB-21" target="CdlXuyK48Img5EnvGftB-26" edge="1">
          <mxGeometry relative="1" as="geometry" />
        </mxCell>
        <mxCell id="CdlXuyK48Img5EnvGftB-70" value="detalhepedido" style="html=1;strokeWidth=2;shape=manualInput;whiteSpace=wrap;rounded=1;size=26;arcSize=11;" parent="1" vertex="1">
          <mxGeometry x="366.25" y="710" width="100" height="60" as="geometry" />
        </mxCell>
        <mxCell id="CdlXuyK48Img5EnvGftB-71" value="valor" style="html=1;strokeWidth=2;shape=manualInput;whiteSpace=wrap;rounded=1;size=26;arcSize=11;" parent="1" vertex="1">
          <mxGeometry x="369.25" y="810" width="100" height="60" as="geometry" />
        </mxCell>
        <mxCell id="CdlXuyK48Img5EnvGftB-80" style="edgeStyle=orthogonalEdgeStyle;rounded=0;orthogonalLoop=1;jettySize=auto;html=1;entryX=0.5;entryY=0;entryDx=0;entryDy=0;" parent="1" source="CdlXuyK48Img5EnvGftB-72" target="CdlXuyK48Img5EnvGftB-21" edge="1">
          <mxGeometry relative="1" as="geometry" />
        </mxCell>
        <mxCell id="CdlXuyK48Img5EnvGftB-72" value="valortotal" style="html=1;strokeWidth=2;shape=manualInput;whiteSpace=wrap;rounded=1;size=26;arcSize=11;" parent="1" vertex="1">
          <mxGeometry x="365" y="900" width="100" height="60" as="geometry" />
        </mxCell>
        <mxCell id="CdlXuyK48Img5EnvGftB-73" style="edgeStyle=orthogonalEdgeStyle;rounded=0;orthogonalLoop=1;jettySize=auto;html=1;entryX=0.468;entryY=0.283;entryDx=0;entryDy=0;entryPerimeter=0;" parent="1" source="CdlXuyK48Img5EnvGftB-70" target="CdlXuyK48Img5EnvGftB-71" edge="1">
          <mxGeometry relative="1" as="geometry" />
        </mxCell>
        <mxCell id="CdlXuyK48Img5EnvGftB-74" style="edgeStyle=orthogonalEdgeStyle;rounded=0;orthogonalLoop=1;jettySize=auto;html=1;entryX=0.55;entryY=0.2;entryDx=0;entryDy=0;entryPerimeter=0;" parent="1" source="CdlXuyK48Img5EnvGftB-71" target="CdlXuyK48Img5EnvGftB-72" edge="1">
          <mxGeometry relative="1" as="geometry" />
        </mxCell>
        <mxCell id="CdlXuyK48Img5EnvGftB-112" value="" style="edgeStyle=orthogonalEdgeStyle;rounded=0;orthogonalLoop=1;jettySize=auto;html=1;" parent="1" source="CdlXuyK48Img5EnvGftB-82" target="CdlXuyK48Img5EnvGftB-105" edge="1">
          <mxGeometry relative="1" as="geometry" />
        </mxCell>
        <mxCell id="CdlXuyK48Img5EnvGftB-82" value="" style="ellipse;whiteSpace=wrap;html=1;aspect=fixed;" parent="1" vertex="1">
          <mxGeometry x="386.25" y="1580" width="80" height="80" as="geometry" />
        </mxCell>
        <mxCell id="CdlXuyK48Img5EnvGftB-88" style="edgeStyle=orthogonalEdgeStyle;rounded=0;orthogonalLoop=1;jettySize=auto;html=1;entryX=1;entryY=0.5;entryDx=0;entryDy=0;" parent="1" source="CdlXuyK48Img5EnvGftB-83" target="CdlXuyK48Img5EnvGftB-82" edge="1">
          <mxGeometry relative="1" as="geometry">
            <Array as="points">
              <mxPoint x="700" y="1620" />
            </Array>
          </mxGeometry>
        </mxCell>
        <mxCell id="CdlXuyK48Img5EnvGftB-83" value="" style="shape=display;whiteSpace=wrap;html=1;" parent="1" vertex="1">
          <mxGeometry x="570" y="1300" width="235.66" height="94.63" as="geometry" />
        </mxCell>
        <mxCell id="CdlXuyK48Img5EnvGftB-87" style="edgeStyle=orthogonalEdgeStyle;rounded=0;orthogonalLoop=1;jettySize=auto;html=1;entryX=0.409;entryY=-0.025;entryDx=0;entryDy=0;entryPerimeter=0;" parent="1" source="CdlXuyK48Img5EnvGftB-26" target="CdlXuyK48Img5EnvGftB-82" edge="1">
          <mxGeometry relative="1" as="geometry" />
        </mxCell>
        <mxCell id="CdlXuyK48Img5EnvGftB-104" style="edgeStyle=orthogonalEdgeStyle;rounded=0;orthogonalLoop=1;jettySize=auto;html=1;entryX=0;entryY=0;entryDx=123.63;entryDy=0;entryPerimeter=0;" parent="1" source="CdlXuyK48Img5EnvGftB-105" target="CdlXuyK48Img5EnvGftB-110" edge="1">
          <mxGeometry relative="1" as="geometry">
            <mxPoint x="670" y="1940" as="targetPoint" />
          </mxGeometry>
        </mxCell>
        <mxCell id="CdlXuyK48Img5EnvGftB-105" value="promocao = 2" style="rhombus;whiteSpace=wrap;html=1;" parent="1" vertex="1">
          <mxGeometry x="350" y="1690" width="150" height="150" as="geometry" />
        </mxCell>
        <mxCell id="CdlXuyK48Img5EnvGftB-106" value="&lt;blockquote style=&quot;margin: 0 0 0 40px; border: none; padding: 0px;&quot;&gt;&lt;div style=&quot;text-align: justify;&quot;&gt;&lt;span style=&quot;background-color: initial;&quot;&gt;promocao =&amp;nbsp;&quot;Quase Super Sanduba&quot;&lt;/span&gt;&lt;/div&gt;&lt;div style=&quot;text-align: justify;&quot;&gt;&lt;span style=&quot;background-color: initial;&quot;&gt;detalhepedido = &quot;Hambúrguer, batata frita e refrigerante&quot;&lt;/span&gt;&lt;/div&gt;&lt;div&gt;&lt;div style=&quot;text-align: justify;&quot;&gt;valor = 3.00&lt;/div&gt;&lt;/div&gt;&lt;div&gt;&lt;div style=&quot;text-align: justify;&quot;&gt;valortotal = quantidade * 3.00&lt;/div&gt;&lt;/div&gt;&lt;/blockquote&gt;" style="shape=display;whiteSpace=wrap;html=1;align=center;" parent="1" vertex="1">
          <mxGeometry x="306.88" y="1880" width="244.75" height="120" as="geometry" />
        </mxCell>
        <mxCell id="CdlXuyK48Img5EnvGftB-107" style="edgeStyle=orthogonalEdgeStyle;rounded=0;orthogonalLoop=1;jettySize=auto;html=1;entryX=0.48;entryY=0.032;entryDx=0;entryDy=0;entryPerimeter=0;" parent="1" source="CdlXuyK48Img5EnvGftB-105" target="CdlXuyK48Img5EnvGftB-106" edge="1">
          <mxGeometry relative="1" as="geometry" />
        </mxCell>
        <mxCell id="CdlXuyK48Img5EnvGftB-108" value="" style="ellipse;whiteSpace=wrap;html=1;aspect=fixed;" parent="1" vertex="1">
          <mxGeometry x="397.25" y="2181" width="80" height="80" as="geometry" />
        </mxCell>
        <mxCell id="CdlXuyK48Img5EnvGftB-109" style="edgeStyle=orthogonalEdgeStyle;rounded=0;orthogonalLoop=1;jettySize=auto;html=1;entryX=1;entryY=0.5;entryDx=0;entryDy=0;" parent="1" source="CdlXuyK48Img5EnvGftB-110" target="CdlXuyK48Img5EnvGftB-108" edge="1">
          <mxGeometry relative="1" as="geometry">
            <Array as="points">
              <mxPoint x="710" y="2220" />
            </Array>
          </mxGeometry>
        </mxCell>
        <mxCell id="CdlXuyK48Img5EnvGftB-110" value="" style="shape=display;whiteSpace=wrap;html=1;" parent="1" vertex="1">
          <mxGeometry x="580" y="1900" width="235.66" height="94.63" as="geometry" />
        </mxCell>
        <mxCell id="CdlXuyK48Img5EnvGftB-111" style="edgeStyle=orthogonalEdgeStyle;rounded=0;orthogonalLoop=1;jettySize=auto;html=1;entryX=0.409;entryY=-0.025;entryDx=0;entryDy=0;entryPerimeter=0;" parent="1" source="CdlXuyK48Img5EnvGftB-106" target="CdlXuyK48Img5EnvGftB-108" edge="1">
          <mxGeometry relative="1" as="geometry" />
        </mxCell>
        <mxCell id="CdlXuyK48Img5EnvGftB-113" style="edgeStyle=orthogonalEdgeStyle;rounded=0;orthogonalLoop=1;jettySize=auto;html=1;entryX=0;entryY=0;entryDx=123.63;entryDy=0;entryPerimeter=0;" parent="1" source="CdlXuyK48Img5EnvGftB-114" target="CdlXuyK48Img5EnvGftB-119" edge="1">
          <mxGeometry relative="1" as="geometry">
            <mxPoint x="681" y="2570" as="targetPoint" />
          </mxGeometry>
        </mxCell>
        <mxCell id="CdlXuyK48Img5EnvGftB-114" value="promocao = 3" style="rhombus;whiteSpace=wrap;html=1;" parent="1" vertex="1">
          <mxGeometry x="361" y="2320" width="150" height="150" as="geometry" />
        </mxCell>
        <mxCell id="CdlXuyK48Img5EnvGftB-115" value="&lt;blockquote style=&quot;margin: 0 0 0 40px; border: none; padding: 0px;&quot;&gt;promocao =&amp;nbsp;&quot;Mirradus Sanduba&quot;&lt;div&gt;detalhepedido = &quot;Misto Quente e refrigerante&quot;&lt;/div&gt;&lt;div&gt;valor = 1.50&lt;/div&gt;&lt;div&gt;valortotal = quantidade * 1.50&lt;/div&gt;&lt;/blockquote&gt;" style="shape=display;whiteSpace=wrap;html=1;" parent="1" vertex="1">
          <mxGeometry x="323" y="2530" width="235.66" height="94.63" as="geometry" />
        </mxCell>
        <mxCell id="CdlXuyK48Img5EnvGftB-116" style="edgeStyle=orthogonalEdgeStyle;rounded=0;orthogonalLoop=1;jettySize=auto;html=1;entryX=0.48;entryY=0.032;entryDx=0;entryDy=0;entryPerimeter=0;" parent="1" source="CdlXuyK48Img5EnvGftB-114" target="CdlXuyK48Img5EnvGftB-115" edge="1">
          <mxGeometry relative="1" as="geometry" />
        </mxCell>
        <mxCell id="CdlXuyK48Img5EnvGftB-117" value="" style="ellipse;whiteSpace=wrap;html=1;aspect=fixed;" parent="1" vertex="1">
          <mxGeometry x="407.25" y="2810" width="80" height="80" as="geometry" />
        </mxCell>
        <mxCell id="CdlXuyK48Img5EnvGftB-118" style="edgeStyle=orthogonalEdgeStyle;rounded=0;orthogonalLoop=1;jettySize=auto;html=1;entryX=1;entryY=0.5;entryDx=0;entryDy=0;" parent="1" source="CdlXuyK48Img5EnvGftB-119" target="CdlXuyK48Img5EnvGftB-117" edge="1">
          <mxGeometry relative="1" as="geometry">
            <Array as="points">
              <mxPoint x="721" y="2850" />
            </Array>
          </mxGeometry>
        </mxCell>
        <mxCell id="CdlXuyK48Img5EnvGftB-119" value="" style="shape=display;whiteSpace=wrap;html=1;" parent="1" vertex="1">
          <mxGeometry x="591" y="2530" width="235.66" height="94.63" as="geometry" />
        </mxCell>
        <mxCell id="CdlXuyK48Img5EnvGftB-120" style="edgeStyle=orthogonalEdgeStyle;rounded=0;orthogonalLoop=1;jettySize=auto;html=1;entryX=0.409;entryY=-0.025;entryDx=0;entryDy=0;entryPerimeter=0;" parent="1" source="CdlXuyK48Img5EnvGftB-115" target="CdlXuyK48Img5EnvGftB-117" edge="1">
          <mxGeometry relative="1" as="geometry" />
        </mxCell>
        <mxCell id="CdlXuyK48Img5EnvGftB-122" style="edgeStyle=orthogonalEdgeStyle;rounded=0;orthogonalLoop=1;jettySize=auto;html=1;entryX=0.508;entryY=0.067;entryDx=0;entryDy=0;entryPerimeter=0;" parent="1" source="CdlXuyK48Img5EnvGftB-108" target="CdlXuyK48Img5EnvGftB-114" edge="1">
          <mxGeometry relative="1" as="geometry" />
        </mxCell>
        <mxCell id="CdlXuyK48Img5EnvGftB-123" value="fim" style="strokeWidth=2;html=1;shape=mxgraph.flowchart.terminator;whiteSpace=wrap;" parent="1" vertex="1">
          <mxGeometry x="404" y="3000" width="100" height="60" as="geometry" />
        </mxCell>
        <mxCell id="CdlXuyK48Img5EnvGftB-124" style="edgeStyle=orthogonalEdgeStyle;rounded=0;orthogonalLoop=1;jettySize=auto;html=1;entryX=0.43;entryY=-0.017;entryDx=0;entryDy=0;entryPerimeter=0;" parent="1" source="CdlXuyK48Img5EnvGftB-117" target="CdlXuyK48Img5EnvGftB-123" edge="1">
          <mxGeometry relative="1" as="geometry" />
        </mxCell>
        <mxCell id="aACwh-ck-DLV80PcLwUr-1" value="Verdadeiro" style="text;html=1;align=center;verticalAlign=middle;whiteSpace=wrap;rounded=0;" vertex="1" parent="1">
          <mxGeometry x="323" y="1260" width="60" height="30" as="geometry" />
        </mxCell>
        <mxCell id="aACwh-ck-DLV80PcLwUr-2" value="Falso" style="text;html=1;align=center;verticalAlign=middle;whiteSpace=wrap;rounded=0;" vertex="1" parent="1">
          <mxGeometry x="511" y="1120" width="60" height="30" as="geometry" />
        </mxCell>
        <mxCell id="aACwh-ck-DLV80PcLwUr-3" value="Verdadeiro" style="text;html=1;align=center;verticalAlign=middle;whiteSpace=wrap;rounded=0;" vertex="1" parent="1">
          <mxGeometry x="289.57" y="1840" width="60" height="30" as="geometry" />
        </mxCell>
        <mxCell id="aACwh-ck-DLV80PcLwUr-4" value="Verdadeiro" style="text;html=1;align=center;verticalAlign=middle;whiteSpace=wrap;rounded=0;" vertex="1" parent="1">
          <mxGeometry x="344" y="2490" width="60" height="30" as="geometry" />
        </mxCell>
        <mxCell id="aACwh-ck-DLV80PcLwUr-6" value="Falso" style="text;html=1;align=center;verticalAlign=middle;whiteSpace=wrap;rounded=0;" vertex="1" parent="1">
          <mxGeometry x="551.63" y="1724" width="60" height="30" as="geometry" />
        </mxCell>
        <mxCell id="aACwh-ck-DLV80PcLwUr-7" value="Falso" style="text;html=1;align=center;verticalAlign=middle;whiteSpace=wrap;rounded=0;" vertex="1" parent="1">
          <mxGeometry x="551.63" y="2350" width="60" height="30" as="geometry" />
        </mxCell>
      </root>
    </mxGraphModel>
  </diagram>
</mxfile>
